<svg style="position: absolute; width: 0; height: 0;" width="0" height="0" version="1.1" xmlns="http://www.w3.org/2000/svg" xmlns:xlink="http://www.w3.org/1999/xlink">
<defs>

	<symbol id="icon-home" viewBox="0 0 23.94 24">
		<title>Home</title>
		<path class="path1" d="M23.500,13.672 C23.309,13.848 23.069,13.934 22.830,13.934 C22.561,13.934 22.294,13.826 22.098,13.611 L21.838,13.326 L21.838,21.908 C21.838,23.006 20.948,23.901 19.855,23.901 L15.888,23.901 C15.341,23.901 14.897,23.454 14.897,22.904 C14.897,22.777 14.926,22.657 14.969,22.545 L14.969,15.910 L8.947,15.928 L8.947,22.904 C8.947,23.454 8.503,23.901 7.956,23.901 L3.989,23.901 C2.896,23.901 2.006,23.006 2.006,21.908 L2.006,13.326 L1.746,13.611 C1.376,14.017 0.748,14.044 0.345,13.672 C-0.059,13.301 -0.086,12.670 0.284,12.264 L11.191,0.305 C11.567,-0.106 12.277,-0.106 12.653,0.305 L23.560,12.264 C23.931,12.670 23.903,13.301 23.500,13.672 ZM19.969,11.277 L11.922,2.454 L3.989,11.151 L3.989,21.908 L6.964,21.908 L6.964,15.928 C6.964,14.829 7.854,13.934 8.947,13.934 L14.897,13.934 C15.990,13.934 16.880,14.829 16.880,15.928 L16.880,21.908 L19.969,21.910 L19.969,11.277 Z"></path>
	</symbol>

	<symbol id="icon-brush" viewBox="0 0 23.94 24">
		<title>Brush</title>
		<path class="path1" d="M16.625,12.066 L21.362,16.773 C21.363,16.774 21.363,16.774 21.363,16.774 L21.368,16.779 C21.417,16.828 21.442,16.889 21.479,16.944 C21.513,16.996 21.559,17.039 21.584,17.099 L21.586,17.105 C21.586,17.106 21.586,17.106 21.587,17.106 L23.776,22.353 C23.930,22.722 23.845,23.148 23.560,23.430 C23.370,23.620 23.116,23.720 22.857,23.720 C22.729,23.720 22.600,23.696 22.477,23.645 L17.507,21.596 C17.452,21.573 17.413,21.532 17.365,21.501 C17.184,21.462 17.009,21.391 16.869,21.251 L12.704,17.110 L11.448,18.725 C11.483,19.734 11.137,20.738 10.402,21.599 C9.264,22.929 7.402,23.720 5.411,23.720 C5.394,23.720 5.376,23.720 5.359,23.720 C3.591,23.707 1.784,22.826 0.270,21.237 C-0.009,20.944 -0.081,20.511 0.089,20.144 C0.258,19.778 0.641,19.549 1.041,19.571 C2.781,19.658 2.934,19.138 3.274,17.999 C3.437,17.452 3.623,16.833 4.027,16.284 C4.796,15.237 5.925,14.620 7.079,14.534 L8.556,12.988 L2.472,6.942 C2.472,6.941 2.471,6.941 2.470,6.940 C2.470,6.940 2.470,6.939 2.469,6.938 L1.012,5.490 C0.996,5.474 0.991,5.453 0.976,5.437 C0.960,5.422 0.938,5.417 0.923,5.401 C0.323,4.805 -0.008,4.012 -0.008,3.167 C-0.009,2.321 0.322,1.526 0.923,0.930 C2.163,-0.303 4.181,-0.303 5.422,0.930 C5.438,0.946 5.444,0.968 5.459,0.985 C5.475,0.999 5.494,1.004 5.509,1.019 L6.964,2.465 C6.965,2.466 6.967,2.466 6.968,2.467 C6.968,2.468 6.969,2.469 6.970,2.470 L12.939,8.403 L20.673,0.311 C20.860,0.115 21.120,0.004 21.393,0.004 C22.677,0.004 23.846,1.165 23.846,2.441 C23.846,2.660 23.773,2.872 23.638,3.045 L16.625,12.066 ZM18.172,19.751 C18.204,19.761 18.236,19.757 18.268,19.770 L21.019,20.904 L19.822,18.037 L15.400,13.642 L13.929,15.533 L18.172,19.751 ZM7.151,16.496 C6.606,16.566 6.028,16.912 5.632,17.450 C5.431,17.724 5.309,18.130 5.181,18.561 C4.925,19.416 4.580,20.570 3.340,21.164 C4.015,21.539 4.705,21.739 5.372,21.744 C5.386,21.744 5.399,21.744 5.412,21.744 C6.826,21.744 8.122,21.213 8.886,20.320 C9.291,19.845 9.486,19.316 9.473,18.803 L7.151,16.496 ZM4.103,2.416 C4.087,2.399 4.081,2.377 4.066,2.360 C4.051,2.347 4.031,2.342 4.016,2.327 C3.550,1.865 2.795,1.865 2.329,2.327 C2.103,2.551 1.980,2.849 1.980,3.166 C1.980,3.483 2.103,3.780 2.329,4.004 C2.345,4.020 2.350,4.041 2.365,4.058 C2.381,4.072 2.402,4.077 2.418,4.093 L3.173,4.844 L4.859,3.167 L4.103,2.416 ZM6.264,4.564 L4.579,6.241 L9.926,11.555 L11.569,9.836 L6.264,4.564 ZM21.679,2.128 L8.929,15.468 L10.361,16.890 L21.764,2.223 C21.739,2.190 21.710,2.158 21.679,2.128 Z"></path>
	</symbol>

	<symbol id="icon-user" viewBox="0 0 23.94 24">
		<title>User</title>
		<path class="path1" d="M22.267,24.000 L1.733,24.000 C0.778,24.000 0.000,23.222 0.000,22.266 L0.000,20.799 C0.000,20.448 0.184,20.123 0.485,19.942 L7.355,15.819 C5.030,13.219 5.000,9.728 5.000,9.563 L5.003,5.282 C5.003,5.224 5.008,5.166 5.019,5.108 C5.561,2.052 9.066,-0.000 12.000,-0.000 C12.001,-0.000 12.003,-0.000 12.005,-0.000 C14.937,-0.000 18.439,2.051 18.981,5.106 C18.992,5.164 18.997,5.222 18.997,5.280 L19.000,9.561 C19.000,9.727 18.970,13.219 16.645,15.819 L23.515,19.940 C23.816,20.120 24.000,20.446 24.000,20.797 L24.000,22.266 C24.000,23.222 23.222,24.000 22.267,24.000 ZM22.000,21.365 L14.484,16.854 C14.397,16.802 14.333,16.729 14.268,16.657 C14.250,16.637 14.224,16.630 14.207,16.608 C14.205,16.604 14.204,16.600 14.202,16.596 C14.148,16.525 14.119,16.443 14.086,16.362 C14.070,16.322 14.042,16.286 14.031,16.245 C14.015,16.182 14.023,16.117 14.019,16.052 C14.015,15.989 14.001,15.926 14.009,15.864 C14.015,15.820 14.039,15.780 14.051,15.738 C14.073,15.654 14.093,15.570 14.137,15.494 C14.140,15.490 14.139,15.486 14.142,15.482 C14.175,15.426 14.226,15.391 14.267,15.344 C14.308,15.298 14.337,15.244 14.388,15.205 C16.975,13.208 17.000,9.600 17.000,9.563 L16.997,5.376 C16.622,3.598 14.269,1.998 12.000,1.998 C9.731,1.999 7.378,3.601 7.003,5.378 L7.000,9.564 C7.000,9.598 7.046,13.223 9.612,15.205 C9.664,15.245 9.694,15.300 9.736,15.347 C9.776,15.393 9.826,15.428 9.858,15.482 C9.861,15.486 9.861,15.491 9.863,15.495 C9.906,15.570 9.926,15.653 9.948,15.735 C9.960,15.779 9.985,15.820 9.991,15.864 C9.999,15.924 9.984,15.985 9.981,16.046 C9.978,16.113 9.985,16.180 9.969,16.245 C9.958,16.285 9.931,16.320 9.916,16.358 C9.883,16.441 9.852,16.524 9.798,16.597 C9.795,16.600 9.795,16.604 9.792,16.608 C9.755,16.656 9.704,16.683 9.660,16.722 C9.612,16.766 9.574,16.819 9.516,16.854 L2.000,21.365 L2.000,22.000 L22.000,22.000 L22.000,21.365 Z"></path>
	</symbol>

	<symbol id="icon-template" viewBox="0 0 23.94 24">
		<title>Template</title>
		<path class="path1" d="M22.000,22.000 L2.000,22.000 C0.897,22.000 0.000,21.103 0.000,20.000 L0.000,2.000 C0.000,0.898 0.897,-0.000 2.000,-0.000 L22.000,-0.000 C23.103,-0.000 24.000,0.898 24.000,2.000 L24.000,20.000 C24.000,21.103 23.103,22.000 22.000,22.000 ZM2.000,20.000 L21.997,20.000 L21.999,6.000 L2.000,6.000 L2.000,20.000 ZM2.000,2.000 L2.000,4.000 L22.000,4.000 L22.000,2.000 L2.000,2.000 ZM19.000,18.000 L15.000,18.000 C14.448,18.000 14.000,17.553 14.000,17.000 L14.000,9.000 C14.000,8.447 14.448,8.000 15.000,8.000 L19.000,8.000 C19.552,8.000 20.000,8.447 20.000,9.000 L20.000,17.000 C20.000,17.553 19.552,18.000 19.000,18.000 ZM18.000,10.000 L16.000,10.000 L16.000,16.000 L18.000,16.000 L18.000,10.000 ZM11.000,18.000 L5.000,18.000 C4.448,18.000 4.000,17.553 4.000,17.000 L4.000,9.000 C4.000,8.447 4.448,8.000 5.000,8.000 L11.000,8.000 C11.552,8.000 12.000,8.447 12.000,9.000 L12.000,17.000 C12.000,17.553 11.552,18.000 11.000,18.000 ZM10.000,10.000 L6.000,10.000 L6.000,16.000 L10.000,16.000 L10.000,10.000 Z"></path>
	</symbol>

	<symbol id="icon-site" viewBox="0 0 23.94 24">
		<title>Site</title>
		<path class="path1" d="M21.871,17.000 L15.281,17.000 L15.781,19.000 L16.035,19.000 C16.587,19.000 17.035,19.447 17.035,20.000 C17.035,20.553 16.587,21.000 16.035,21.000 L8.035,21.000 C7.483,21.000 7.035,20.553 7.035,20.000 C7.035,19.447 7.483,19.000 8.035,19.000 L8.182,19.000 L8.727,17.000 L2.129,17.000 C0.955,17.000 0.000,16.045 0.000,14.872 L0.000,2.128 C0.000,0.955 0.955,0.000 2.129,0.000 L21.871,0.000 C23.045,0.000 24.000,0.955 24.000,2.128 L24.000,14.872 C24.000,16.045 23.045,17.000 21.871,17.000 ZM13.719,19.000 L13.219,17.000 L10.800,17.000 L10.255,19.000 L13.719,19.000 ZM22.000,2.128 C22.000,2.058 21.942,2.000 21.871,2.000 L2.129,2.000 C2.058,2.000 2.000,2.058 2.000,2.128 L2.000,12.000 L22.000,12.000 L22.000,2.128 ZM22.000,14.000 L2.000,14.000 L2.000,14.872 C2.000,14.942 2.058,15.000 2.129,15.000 L21.871,15.000 C21.942,15.000 22.000,14.942 22.000,14.872 L22.000,14.000 Z"></path>
	</symbol>

	<symbol id="icon-education" viewBox="0 0 23.94 24">
		<title>Education</title>
		<path class="path1" d="M22.000,17.934 C20.898,17.934 20.000,17.039 20.000,15.939 C20.000,15.203 20.405,14.566 21.000,14.220 L21.000,8.676 L18.878,9.886 C18.950,10.023 19.000,10.173 19.000,10.338 L19.000,17.324 C19.000,17.875 18.553,18.322 18.000,18.322 C17.911,18.322 17.831,18.294 17.749,18.272 C16.607,18.924 14.392,19.930 11.500,19.930 C8.609,19.930 6.394,18.924 5.251,18.272 C5.169,18.294 5.089,18.322 5.000,18.322 C4.447,18.322 4.000,17.875 4.000,17.324 L4.000,10.338 C4.000,10.173 4.050,10.023 4.122,9.886 L0.504,7.823 C0.192,7.645 0.000,7.315 0.000,6.956 C0.000,6.598 0.192,6.267 0.504,6.090 L11.004,0.102 C11.311,-0.073 11.689,-0.073 11.996,0.102 L22.496,6.090 C22.808,6.267 23.000,6.598 23.000,6.956 C23.000,7.016 22.965,7.065 22.955,7.122 C22.972,7.196 23.000,7.265 23.000,7.344 L23.000,14.220 C23.595,14.566 24.000,15.203 24.000,15.939 C24.000,17.039 23.103,17.934 22.000,17.934 ZM17.000,16.402 L17.000,10.957 L11.996,13.811 C11.843,13.898 11.671,13.942 11.500,13.942 C11.329,13.942 11.157,13.898 11.004,13.811 L6.000,10.957 L6.000,16.398 C6.810,16.891 8.833,17.934 11.500,17.934 C14.188,17.934 16.195,16.896 17.000,16.402 ZM11.500,2.118 L3.016,6.956 L11.500,11.795 L19.984,6.956 L11.500,2.118 Z"></path>
	</symbol>

	<symbol id="icon-email" viewBox="0 0 23.94 24">
		<title>Email</title>
		<path class="path1" d="M20.796,24.000 L2.991,24.000 C1.355,24.000 0.024,22.654 0.024,21.000 L0.024,11.000 C0.024,10.992 0.026,10.984 0.028,10.977 C0.032,10.830 0.068,10.686 0.135,10.553 C0.137,10.542 0.139,10.531 0.145,10.521 C0.166,10.481 0.203,10.456 0.229,10.420 C0.235,10.411 0.243,10.404 0.249,10.396 C0.283,10.351 0.305,10.300 0.347,10.260 L3.587,7.282 C3.993,6.910 4.618,6.940 4.985,7.349 C5.352,7.757 5.323,8.389 4.918,8.761 L2.707,10.795 L11.894,15.861 L21.081,10.795 L18.888,8.779 C18.484,8.407 18.454,7.775 18.822,7.366 C19.190,6.958 19.815,6.927 20.219,7.299 L23.325,10.155 C23.691,10.324 24.000,10.629 24.000,11.000 L24.000,21.000 C24.000,22.654 22.432,24.000 20.796,24.000 ZM22.000,12.566 L12.367,17.878 C12.220,17.959 12.057,18.000 11.894,18.000 C11.730,18.000 11.568,17.959 11.420,17.878 L2.002,12.685 L2.002,21.000 C2.002,21.551 2.446,22.000 2.991,22.000 L20.796,22.000 C21.341,22.000 22.000,21.551 22.000,21.000 L22.000,12.566 ZM14.169,9.974 C13.584,9.740 13.177,9.311 12.994,8.781 C12.653,8.919 12.283,9.000 11.894,9.000 C10.257,9.000 8.926,7.654 8.926,6.000 C8.926,4.346 10.257,3.000 11.894,3.000 C12.792,3.000 13.588,3.414 14.133,4.053 C14.549,4.171 14.861,4.541 14.861,5.000 L14.861,8.145 C14.931,8.175 15.303,8.187 15.407,8.097 C15.874,7.596 15.858,6.903 15.845,6.292 L15.841,6.000 C15.841,3.794 14.068,2.000 11.890,2.000 C9.710,2.000 7.937,3.794 7.937,6.000 C7.937,8.206 9.710,10.000 11.890,10.000 C12.436,10.000 12.879,10.448 12.879,11.000 C12.879,11.552 12.436,12.000 11.890,12.000 C8.620,12.000 5.959,9.309 5.959,6.000 C5.959,2.691 8.620,-0.000 11.890,-0.000 C15.159,-0.000 17.819,2.691 17.819,6.000 L17.823,6.247 C17.841,7.041 17.870,8.370 16.845,9.471 C16.225,10.135 15.101,10.347 14.169,9.974 ZM11.894,5.000 C11.348,5.000 10.904,5.449 10.904,6.000 C10.904,6.551 11.348,7.000 11.894,7.000 C12.439,7.000 12.883,6.551 12.883,6.000 C12.883,5.449 12.439,5.000 11.894,5.000 Z"></path>
	</symbol>

	<symbol id="icon-code" viewBox="0 0 23.94 24">
		<title>Code</title>
		<path class="path1" d="M22.000,22.000 L2.000,22.000 C0.897,22.000 0.000,21.103 0.000,20.000 L0.000,2.000 C0.000,0.898 0.897,-0.000 2.000,-0.000 L22.000,-0.000 C23.103,-0.000 24.000,0.898 24.000,2.000 L24.000,20.000 C24.000,21.103 23.103,22.000 22.000,22.000 ZM2.000,20.000 L21.997,20.000 L21.999,6.000 L2.000,6.000 L2.000,20.000 ZM2.000,2.000 L2.000,4.000 L22.000,4.000 L22.000,2.000 L2.000,2.000 ZM14.707,16.708 C14.512,16.903 14.256,17.001 14.000,17.001 C13.744,17.001 13.488,16.903 13.293,16.708 C12.902,16.318 12.902,15.685 13.293,15.294 L15.586,13.001 L13.293,10.708 C12.902,10.317 12.902,9.685 13.293,9.294 C13.684,8.904 14.316,8.904 14.707,9.294 L17.707,12.294 C18.098,12.685 18.098,13.318 17.707,13.708 L14.707,16.708 ZM10.707,16.707 C10.512,16.902 10.256,17.000 10.000,17.000 C9.744,17.000 9.488,16.902 9.293,16.707 L6.293,13.707 C5.902,13.316 5.902,12.684 6.293,12.293 L9.293,9.293 C9.684,8.902 10.316,8.902 10.707,9.293 C11.098,9.683 11.098,10.316 10.707,10.707 L8.414,13.000 L10.707,15.293 C11.098,15.684 11.098,16.317 10.707,16.707 Z"></path>
	</symbol>

	<symbol id="icon-switch" viewBox="0 0 23.94 24">
		<title>Switch</title>
		<path class="path1" d="M18.501,9.987 L8.660,9.987 C7.764,10.620 6.678,11.000 5.500,11.000 C2.468,11.000 -0.000,8.533 -0.000,5.500 C-0.000,2.467 2.468,0.000 5.500,0.000 C6.663,0.000 7.739,0.368 8.629,0.987 L18.501,0.987 C20.981,0.987 23.000,3.006 23.000,5.487 C23.000,7.968 20.981,9.987 18.501,9.987 ZM5.500,2.000 C3.570,2.000 2.000,3.570 2.000,5.500 C2.000,7.430 3.570,9.000 5.500,9.000 C7.430,9.000 9.000,7.430 9.000,5.500 C9.000,3.570 7.430,2.000 5.500,2.000 ZM18.501,2.987 L10.364,2.987 C10.757,3.744 11.000,4.590 11.000,5.500 C11.000,6.400 10.762,7.237 10.378,7.987 L18.501,7.987 C19.879,7.987 21.000,6.866 21.000,5.487 C21.000,4.109 19.879,2.987 18.501,2.987 ZM4.499,12.987 L14.281,12.987 C14.307,12.987 14.328,13.000 14.353,13.002 C15.246,12.375 16.328,12.000 17.500,12.000 C20.532,12.000 23.000,14.468 23.000,17.500 C23.000,20.533 20.532,23.000 17.500,23.000 C16.308,23.000 15.212,22.609 14.310,21.962 C14.268,21.968 14.231,21.987 14.187,21.987 L4.499,21.987 C2.019,21.987 -0.000,19.969 -0.000,17.488 C-0.000,15.006 2.019,12.987 4.499,12.987 ZM21.000,17.500 C21.000,15.570 19.430,14.000 17.500,14.000 C15.570,14.000 14.000,15.570 14.000,17.500 C14.000,19.430 15.570,21.000 17.500,21.000 C19.430,21.000 21.000,19.430 21.000,17.500 ZM4.499,19.987 L12.623,19.987 C12.238,19.237 12.000,18.400 12.000,17.500 C12.000,16.590 12.243,15.744 12.636,14.987 L4.499,14.987 C3.121,14.987 2.000,16.109 2.000,17.488 C2.000,18.865 3.121,19.987 4.499,19.987 Z"></path>
	</symbol>

	<symbol id="icon-video" viewBox="0 0 23.94 24">
		<title>Video</title>
		<path class="path1" d="M21.000,24.000 L2.000,24.000 C0.897,24.000 0.000,23.103 0.000,22.000 L0.000,2.000 C0.000,0.897 0.897,-0.000 2.000,-0.000 L21.000,-0.000 C22.103,-0.000 23.000,0.897 23.000,2.000 L23.000,22.000 C23.000,23.103 22.103,24.000 21.000,24.000 ZM2.000,2.000 L2.000,22.000 L20.997,22.000 L21.000,2.000 L2.000,2.000 ZM19.000,21.000 C18.448,21.000 18.000,20.553 18.000,20.000 L18.000,19.000 C18.000,18.447 18.448,18.000 19.000,18.000 C19.553,18.000 20.000,18.447 20.000,19.000 L20.000,20.000 C20.000,20.553 19.553,21.000 19.000,21.000 ZM19.000,6.000 C18.448,6.000 18.000,5.553 18.000,5.000 L18.000,4.000 C18.000,3.447 18.448,3.000 19.000,3.000 C19.553,3.000 20.000,3.447 20.000,4.000 L20.000,5.000 C20.000,5.553 19.553,6.000 19.000,6.000 ZM16.000,21.000 C15.448,21.000 15.000,20.553 15.000,20.000 L15.000,19.000 C15.000,18.447 15.448,18.000 16.000,18.000 C16.553,18.000 17.000,18.447 17.000,19.000 L17.000,20.000 C17.000,20.553 16.553,21.000 16.000,21.000 ZM16.000,6.000 C15.448,6.000 15.000,5.553 15.000,5.000 L15.000,4.000 C15.000,3.447 15.448,3.000 16.000,3.000 C16.553,3.000 17.000,3.447 17.000,4.000 L17.000,5.000 C17.000,5.553 16.553,6.000 16.000,6.000 ZM13.000,6.000 C12.448,6.000 12.000,5.553 12.000,5.000 L12.000,4.000 C12.000,3.447 12.448,3.000 13.000,3.000 C13.553,3.000 14.000,3.447 14.000,4.000 L14.000,5.000 C14.000,5.553 13.553,6.000 13.000,6.000 ZM10.000,6.000 C9.448,6.000 9.000,5.553 9.000,5.000 L9.000,4.000 C9.000,3.447 9.448,3.000 10.000,3.000 C10.553,3.000 11.000,3.447 11.000,4.000 L11.000,5.000 C11.000,5.553 10.553,6.000 10.000,6.000 ZM15.455,11.178 C15.792,11.351 16.003,11.699 16.000,12.077 C15.997,12.456 15.779,12.801 15.439,12.967 L9.439,15.899 C9.300,15.966 9.150,16.000 9.000,16.000 C8.815,16.000 8.632,15.949 8.470,15.848 C8.178,15.665 8.000,15.344 8.000,15.000 L8.000,9.000 C8.000,8.652 8.181,8.328 8.478,8.147 C8.774,7.965 9.145,7.951 9.455,8.110 L15.455,11.178 ZM10.000,13.399 L12.764,12.048 L10.000,10.635 L10.000,13.399 ZM7.000,6.000 C6.448,6.000 6.000,5.553 6.000,5.000 L6.000,4.000 C6.000,3.447 6.448,3.000 7.000,3.000 C7.553,3.000 8.000,3.447 8.000,4.000 L8.000,5.000 C8.000,5.553 7.553,6.000 7.000,6.000 ZM4.000,21.000 C3.448,21.000 3.000,20.553 3.000,20.000 L3.000,19.000 C3.000,18.447 3.448,18.000 4.000,18.000 C4.553,18.000 5.000,18.447 5.000,19.000 L5.000,20.000 C5.000,20.553 4.553,21.000 4.000,21.000 ZM4.000,6.000 C3.448,6.000 3.000,5.553 3.000,5.000 L3.000,4.000 C3.000,3.447 3.448,3.000 4.000,3.000 C4.553,3.000 5.000,3.447 5.000,4.000 L5.000,5.000 C5.000,5.553 4.553,6.000 4.000,6.000 ZM7.000,18.000 C7.553,18.000 8.000,18.447 8.000,19.000 L8.000,20.000 C8.000,20.553 7.553,21.000 7.000,21.000 C6.448,21.000 6.000,20.553 6.000,20.000 L6.000,19.000 C6.000,18.447 6.448,18.000 7.000,18.000 ZM10.000,18.000 C10.553,18.000 11.000,18.447 11.000,19.000 L11.000,20.000 C11.000,20.553 10.553,21.000 10.000,21.000 C9.448,21.000 9.000,20.553 9.000,20.000 L9.000,19.000 C9.000,18.447 9.448,18.000 10.000,18.000 ZM13.000,18.000 C13.553,18.000 14.000,18.447 14.000,19.000 L14.000,20.000 C14.000,20.553 13.553,21.000 13.000,21.000 C12.448,21.000 12.000,20.553 12.000,20.000 L12.000,19.000 C12.000,18.447 12.448,18.000 13.000,18.000 Z"></path>
	</symbol>

	<symbol id="icon-icons" viewBox="0 0 23.94 24">
		<title>Icons</title>
		<path class="path1" d="M19.001,11.918 C18.997,11.918 19.008,11.875 19.000,11.875 L16.826,11.875 C18.152,13.144 18.982,14.923 18.982,16.895 C18.982,20.738 15.844,23.864 11.988,23.864 C8.892,23.864 6.188,21.796 5.312,18.886 L0.998,18.886 C0.445,18.886 -0.002,18.440 -0.002,17.891 L-0.002,7.936 C-0.002,7.386 0.445,6.940 0.998,6.940 L8.134,6.940 C8.163,6.940 8.187,6.954 8.215,6.956 L12.130,0.455 C12.491,-0.145 13.483,-0.145 13.844,0.455 L19.749,10.261 C19.906,10.437 20.000,10.668 20.000,10.922 C20.000,11.472 19.553,11.918 19.001,11.918 ZM11.988,21.873 C14.742,21.873 16.983,19.640 16.983,16.895 C16.983,14.151 14.742,11.918 11.988,11.918 C11.966,11.918 11.949,11.907 11.928,11.906 C11.960,12.000 11.988,12.096 11.988,12.201 L11.988,17.891 C11.988,18.440 11.541,18.886 10.989,18.886 L7.421,18.886 C8.203,20.660 9.982,21.873 11.988,21.873 ZM7.000,11.875 C6.640,11.875 6.300,11.724 6.123,11.412 C5.945,11.100 5.950,10.717 6.136,10.410 L7.060,8.875 L2.000,8.875 L1.997,16.895 L9.990,16.895 L9.990,12.201 C9.990,12.086 10.019,11.978 10.056,11.875 L7.000,11.875 ZM12.987,2.902 L8.757,9.926 L17.217,9.926 L12.987,2.902 Z"></path>
	</symbol>

	<symbol id="icon-fonts" viewBox="0 0 23.94 24">
		<title>Fonts</title>
		<path class="path1" d="M23.499,11.655 C22.032,13.130 20.283,13.910 18.444,13.910 C18.397,13.910 18.350,13.903 18.304,13.902 C17.585,14.681 15.260,17.444 14.865,21.024 C14.808,21.544 14.334,21.928 13.841,21.909 C6.331,21.612 1.455,23.791 1.407,23.813 C1.400,23.815 1.394,23.816 1.387,23.817 C1.268,23.868 1.142,23.896 1.015,23.898 C1.010,23.898 1.006,23.901 1.002,23.901 C1.001,23.901 0.999,23.902 0.998,23.902 C0.998,23.902 0.997,23.902 0.997,23.902 C0.997,23.902 0.996,23.902 0.996,23.902 C0.862,23.902 0.729,23.871 0.604,23.816 C0.598,23.816 0.592,23.815 0.587,23.813 C0.571,23.805 0.562,23.791 0.547,23.784 C0.513,23.766 0.486,23.737 0.454,23.716 C0.401,23.681 0.342,23.658 0.295,23.611 C0.289,23.604 0.287,23.594 0.280,23.587 C0.274,23.583 0.268,23.578 0.263,23.573 C0.196,23.498 0.138,23.414 0.095,23.318 C0.093,23.313 0.092,23.307 0.091,23.302 C-0.017,23.050 -0.019,22.766 0.089,22.514 C0.090,22.508 0.090,22.501 0.093,22.495 C0.115,22.447 2.224,17.656 1.987,9.985 C1.972,9.466 2.355,9.022 2.869,8.964 C6.517,8.557 9.328,6.101 10.021,5.445 C10.002,3.589 10.708,1.772 12.188,0.284 C12.575,-0.105 13.202,-0.105 13.589,0.284 L23.499,10.247 C23.887,10.635 23.887,11.267 23.499,11.655 ZM3.118,19.364 L7.037,15.424 C6.871,14.765 7.011,14.042 7.523,13.527 C8.270,12.774 9.578,12.774 10.327,13.528 C11.099,14.304 11.099,15.568 10.326,16.345 C9.951,16.721 9.454,16.929 8.924,16.929 C8.755,16.929 8.599,16.873 8.439,16.832 L4.540,20.752 C6.653,20.266 9.538,19.835 13.031,19.893 C13.567,17.052 15.030,14.785 16.064,13.471 C14.853,13.030 13.679,12.267 12.629,11.212 C11.560,10.137 10.852,8.940 10.435,7.714 C9.137,8.756 6.860,10.262 3.987,10.809 C4.021,14.352 3.594,17.250 3.118,19.364 ZM8.923,14.937 L8.924,15.932 C8.924,15.932 8.924,15.932 8.924,15.932 L8.925,14.936 C8.924,14.936 8.923,14.936 8.923,14.937 ZM12.940,2.449 C11.007,5.093 12.240,8.003 14.030,9.803 C15.387,11.166 16.954,11.917 18.444,11.918 C19.473,11.918 20.447,11.576 21.348,10.901 L12.940,2.449 Z"></path>
	</symbol>


	<symbol id="icon-search" viewBox="0 0 23.94 24">
		<title>Search</title>
		<path class="path1" d="M23.608,23.707 C23.413,23.902 23.158,24.000 22.903,24.000 C22.648,24.000 22.393,23.902 22.199,23.707 L14.546,16.025 C13.011,17.258 11.069,18.000 8.956,18.000 C4.012,18.000 -0.011,13.963 -0.011,9.001 C-0.011,4.038 4.012,-0.000 8.956,-0.000 C13.900,-0.000 17.922,4.038 17.922,9.001 C17.922,11.122 17.183,13.071 15.955,14.611 L23.608,22.293 C23.997,22.683 23.997,23.317 23.608,23.707 ZM8.956,2.000 C5.110,2.000 1.982,5.141 1.982,9.001 C1.982,12.860 5.110,16.000 8.956,16.000 C12.801,16.000 15.930,12.860 15.930,9.001 C15.930,5.141 12.801,2.000 8.956,2.000 Z"></path>
	</symbol>

	<symbol id="icon-like" viewBox="0 0 23.94 24">
		<title>Like</title>
		<path class="path1" d="M21.966,11.086 C21.961,11.093 21.960,11.101 21.954,11.108 L13.971,21.016 C13.408,21.654 12.659,22.000 11.884,22.000 C11.109,22.000 10.359,21.654 9.825,21.051 L1.815,11.108 C1.810,11.102 1.809,11.094 1.804,11.087 C-0.616,8.527 -0.597,4.444 1.880,1.922 C3.097,0.682 4.714,0.000 6.436,0.000 C8.122,0.000 9.702,0.662 10.909,1.852 C10.917,1.858 10.926,1.859 10.933,1.865 L11.880,2.682 L12.840,1.862 C12.847,1.856 12.856,1.855 12.862,1.850 C14.070,0.662 15.649,0.000 17.333,0.000 C19.055,0.000 20.673,0.682 21.890,1.922 C24.364,4.444 24.383,8.526 21.966,11.086 ZM20.482,3.329 C19.641,2.472 18.522,2.000 17.333,2.000 C16.144,2.000 15.025,2.472 14.183,3.329 C14.172,3.340 14.158,3.344 14.146,3.354 C14.135,3.365 14.131,3.379 14.119,3.389 L12.523,4.752 C12.496,4.775 12.463,4.784 12.434,4.804 C12.366,4.851 12.301,4.898 12.225,4.926 C12.205,4.934 12.183,4.934 12.162,4.940 C12.070,4.967 11.979,5.000 11.884,5.000 C11.744,5.000 11.607,4.960 11.477,4.900 C11.474,4.898 11.471,4.896 11.468,4.895 C11.389,4.857 11.310,4.820 11.240,4.761 L9.646,3.385 C9.635,3.376 9.631,3.362 9.621,3.353 C9.610,3.343 9.596,3.340 9.586,3.329 C8.745,2.472 7.625,2.000 6.436,2.000 C5.247,2.000 4.128,2.472 3.286,3.329 C1.543,5.105 1.544,7.996 3.287,9.773 C3.300,9.786 3.304,9.803 3.315,9.816 C3.326,9.828 3.341,9.833 3.351,9.846 L11.332,19.754 C11.595,20.046 12.143,20.081 12.464,19.719 L20.418,9.846 C20.429,9.833 20.444,9.828 20.455,9.815 C20.466,9.803 20.470,9.786 20.482,9.774 C22.224,7.996 22.224,5.105 20.482,3.329 Z"></path>
	</symbol>

	<symbol id="icon-category" viewBox="0 0 23.94 24">
		<title>Category</title>
		<path class="path1" d="M22.000,19.881 L2.000,19.881 C0.897,19.881 0.000,18.990 0.000,17.894 L0.000,1.995 C0.000,0.899 0.897,0.007 2.000,0.007 L9.000,0.007 C9.031,0.007 9.057,0.022 9.087,0.025 C9.155,0.031 9.220,0.045 9.287,0.065 C9.352,0.085 9.412,0.108 9.471,0.140 C9.498,0.155 9.528,0.157 9.555,0.174 L12.356,2.030 L22.000,2.030 C23.103,2.030 24.000,2.886 24.000,3.982 L24.000,17.894 C24.000,18.990 23.103,19.881 22.000,19.881 ZM22.000,3.982 L12.000,3.982 C12.000,3.982 12.000,3.982 11.999,3.982 C11.999,3.982 11.999,3.982 11.999,3.982 C11.882,3.982 11.767,3.954 11.654,3.913 C11.619,3.900 11.587,3.883 11.554,3.866 C11.518,3.848 11.480,3.838 11.445,3.815 L8.698,1.995 L2.000,1.995 L2.000,18.030 L22.000,18.030 L22.000,3.982 Z"></path>
	</symbol>

	<symbol id="icon-unlock" viewBox="0 0 23.94 24">
		<title>Unlock</title>
		<path class="path1" d="M17.000,23.838 L3.000,23.838 C1.346,23.838 -0.000,22.502 -0.000,20.859 L-0.000,10.929 C-0.000,9.287 1.346,7.951 3.000,7.951 L4.358,7.951 C3.826,6.472 3.898,4.871 4.568,3.442 C5.244,2.003 6.444,0.911 7.947,0.368 C9.448,-0.176 11.076,-0.106 12.527,0.566 C13.977,1.237 15.076,2.428 15.623,3.921 L15.912,4.577 C16.131,5.080 15.898,5.664 15.392,5.883 C14.884,6.102 14.296,5.869 14.076,5.366 L13.766,4.655 C13.380,3.606 12.648,2.813 11.682,2.366 C10.716,1.918 9.634,1.872 8.631,2.234 C7.630,2.595 6.831,3.322 6.381,4.281 C5.931,5.240 5.884,6.316 6.248,7.310 L6.479,7.951 L17.000,7.951 C18.654,7.951 20.000,9.287 20.000,10.929 L20.000,20.859 C20.000,22.502 18.654,23.838 17.000,23.838 ZM18.000,10.929 C18.000,10.382 17.552,9.875 17.000,9.875 L6.118,9.875 C6.116,9.876 6.115,9.877 6.113,9.878 C6.001,9.918 5.888,9.937 5.775,9.937 C5.660,9.937 5.550,9.913 5.443,9.875 L3.000,9.875 C2.448,9.875 2.000,10.382 2.000,10.929 L2.000,20.859 C2.000,21.407 2.448,21.852 3.000,21.852 L17.000,21.852 C17.552,21.852 18.000,21.407 18.000,20.859 L18.000,10.929 ZM11.000,15.618 L11.000,17.880 C11.000,18.429 10.553,18.873 10.000,18.873 C9.447,18.873 9.000,18.429 9.000,17.880 L9.000,15.618 C8.405,15.273 8.000,14.640 8.000,13.908 C8.000,12.813 8.897,11.923 10.000,11.923 C11.102,11.923 12.000,12.813 12.000,13.908 C12.000,14.640 11.595,15.273 11.000,15.618 Z"></path>
	</symbol>

	<symbol id="icon-arrow-up" viewBox="0 0 23.94 24">
		<title>Arrow-Up</title>
		<path class="path1" d="M13.538,7.685 C13.345,7.879 13.092,7.976 12.839,7.976 C12.586,7.976 12.333,7.879 12.140,7.684 L7.899,3.404 L7.899,22.928 C7.899,23.478 7.457,23.925 6.911,23.925 C6.366,23.925 6.060,23.491 6.060,22.940 L6.060,3.267 L1.682,7.684 C1.296,8.073 0.671,8.073 0.285,7.685 C-0.101,7.295 -0.101,6.664 0.285,6.275 L6.213,0.292 C6.293,0.211 6.392,0.155 6.493,0.109 C6.612,0.045 6.747,0.000 6.911,0.000 C7.184,0.000 7.431,0.112 7.609,0.292 C7.610,0.292 7.610,0.292 7.610,0.292 L13.538,6.275 C13.923,6.664 13.923,7.295 13.538,7.685 Z"></path>
	</symbol>

	<symbol id="icon-hamburger" viewBox="0 0 23.94 24">
		<title>Hamburger</title>
		<path class="path1" d="M23.000,7.000 L1.000,7.000 C0.448,7.000 -0.000,6.552 -0.000,6.000 C-0.000,5.448 0.448,5.000 1.000,5.000 L23.000,5.000 C23.552,5.000 24.000,5.448 24.000,6.000 C24.000,6.552 23.552,7.000 23.000,7.000 ZM23.000,2.000 L1.000,2.000 C0.448,2.000 -0.000,1.552 -0.000,1.000 C-0.000,0.448 0.448,-0.000 1.000,-0.000 L23.000,-0.000 C23.552,-0.000 24.000,0.448 24.000,1.000 C24.000,1.552 23.552,2.000 23.000,2.000 ZM1.000,10.000 L23.000,10.000 C23.552,10.000 24.000,10.448 24.000,11.000 C24.000,11.552 23.552,12.000 23.000,12.000 L1.000,12.000 C0.448,12.000 -0.000,11.552 -0.000,11.000 C-0.000,10.448 0.448,10.000 1.000,10.000 Z"></path>
	</symbol>

	<symbol id="icon-article" viewBox="0 0 23.94 24">
		<title>Article</title>
		<path class="path1" d="M18.250,24.000 L1.750,24.000 C0.785,24.000 -0.000,23.222 -0.000,22.267 L-0.000,1.733 C-0.000,0.778 0.785,0.000 1.750,0.000 L18.250,0.000 C19.215,0.000 20.000,0.778 20.000,1.733 L20.000,22.267 C20.000,23.222 19.215,24.000 18.250,24.000 ZM18.000,2.000 L2.000,2.000 L2.000,22.000 L18.000,22.000 L18.000,2.000 ZM4.000,12.000 L16.000,12.000 C16.552,12.000 17.000,12.448 17.000,13.000 C17.000,13.552 16.552,14.000 16.000,14.000 L4.000,14.000 C3.448,14.000 3.000,13.552 3.000,13.000 C3.000,12.448 3.448,12.000 4.000,12.000 ZM4.000,15.000 L16.000,15.000 C16.552,15.000 17.000,15.448 17.000,16.000 C17.000,16.552 16.552,17.000 16.000,17.000 L4.000,17.000 C3.448,17.000 3.000,16.552 3.000,16.000 C3.000,15.448 3.448,15.000 4.000,15.000 ZM4.000,18.000 L11.000,18.000 C11.552,18.000 12.000,18.448 12.000,19.000 C12.000,19.552 11.552,20.000 11.000,20.000 L4.000,20.000 C3.448,20.000 3.000,19.552 3.000,19.000 C3.000,18.448 3.448,18.000 4.000,18.000 ZM16.000,10.000 L12.000,10.000 C11.448,10.000 11.000,9.552 11.000,9.000 C11.000,8.448 11.448,8.000 12.000,8.000 L16.000,8.000 C16.552,8.000 17.000,8.448 17.000,9.000 C17.000,9.552 16.552,10.000 16.000,10.000 ZM16.000,7.000 L12.000,7.000 C11.448,7.000 11.000,6.552 11.000,6.000 C11.000,5.448 11.448,5.000 12.000,5.000 L16.000,5.000 C16.552,5.000 17.000,5.448 17.000,6.000 C17.000,6.552 16.552,7.000 16.000,7.000 ZM9.000,10.000 L5.000,10.000 C4.448,10.000 4.000,9.552 4.000,9.000 L4.000,5.000 C4.000,4.448 4.448,4.000 5.000,4.000 L9.000,4.000 C9.552,4.000 10.000,4.448 10.000,5.000 L10.000,9.000 C10.000,9.552 9.552,10.000 9.000,10.000 ZM8.000,6.000 L6.000,6.000 L6.000,8.000 L8.000,8.000 L8.000,6.000 Z"></path>
	</symbol>

	<symbol id="icon-fonts" viewBox="0 0 23.94 24">
		<title>Fonts</title>
		<path class="path1" d="M22.873,19.908 C22.373,19.908 21.721,19.649 21.302,19.010 C20.507,19.455 19.397,19.908 18.145,19.908 C15.575,19.908 13.914,18.480 13.914,16.271 C13.914,13.302 16.881,11.950 19.638,11.950 L20.882,11.950 C20.882,8.966 19.825,8.966 18.892,8.966 C17.255,8.966 16.927,9.974 16.877,10.176 C16.748,10.703 16.216,11.042 15.690,10.921 C15.161,10.803 14.822,10.293 14.930,9.763 C15.126,8.799 16.206,6.976 18.892,6.976 C22.873,6.976 22.873,10.720 22.873,11.950 L22.873,17.421 C22.873,17.760 22.944,17.890 22.967,17.923 C23.473,17.970 23.869,18.395 23.869,18.913 C23.869,19.462 23.423,19.908 22.873,19.908 ZM19.638,13.940 C18.347,13.940 15.905,14.427 15.905,16.271 C15.905,17.365 16.659,17.919 18.145,17.919 C19.313,17.919 20.368,17.292 20.882,16.929 L20.882,13.940 L19.638,13.940 ZM12.208,19.866 C11.683,20.024 11.126,19.724 10.970,19.198 L9.398,13.940 L3.572,13.940 L1.924,19.210 C1.791,19.636 1.398,19.908 0.974,19.908 C0.875,19.908 0.775,19.893 0.677,19.863 C0.152,19.698 -0.140,19.141 0.023,18.616 L5.623,0.711 C5.753,0.296 6.138,0.014 6.573,0.014 C6.575,0.014 6.577,0.014 6.579,0.014 C7.017,0.016 7.402,0.305 7.527,0.724 L12.877,18.629 C13.035,19.155 12.735,19.710 12.208,19.866 ZM6.551,4.413 L4.194,11.950 L8.804,11.950 L6.551,4.413 Z"></path>
	</symbol>

</defs></svg>


